<svg width="14" height="17" viewBox="0 0 14 17" fill="none" xmlns="http://www.w3.org/2000/svg">
<g id="apple] 1" clip-path="url(#clip0_46_466)">
<path id="Vector" d="M9.39625 2.88475C9.90475 2.2675 10.2633 1.42525 10.2633 0.57475C10.2633 0.4585 10.2558 0.34225 10.2385 0.25C9.4045 0.283 8.404 0.8005 7.81225 1.501C7.33675 2.03425 6.90325 2.88475 6.90325 3.73525C6.90325 3.86875 6.92875 3.99325 6.937 4.03525C6.9865 4.0435 7.0705 4.06 7.162 4.06C7.9045 4.06 8.8375 3.55975 9.39625 2.88475ZM9.97975 4.23475C8.73775 4.23475 7.72075 4.99375 7.06975 4.99375C6.37825 4.99375 5.4775 4.285 4.39375 4.285C2.33425 4.285 0.25 5.986 0.25 9.1885C0.25 11.1895 1.01725 13.2985 1.97575 14.6583C2.79325 15.808 3.51025 16.75 4.54375 16.75C5.56075 16.75 6.0115 16.075 7.27825 16.075C8.56225 16.075 8.854 16.7335 9.97975 16.7335C11.0972 16.7335 11.8397 15.7075 12.5477 14.6987C13.3315 13.54 13.6652 12.4143 13.6727 12.3565C13.6067 12.3393 11.4722 11.464 11.4722 9.02125C11.4722 6.90325 13.1485 5.953 13.2482 5.878C12.139 4.28575 10.447 4.23475 9.97975 4.23475Z" fill="white"/>
</g>
<defs>
<clipPath id="clip0_46_466">
<rect width="14" height="17" fill="white"/>
</clipPath>
</defs>
</svg>
