<svg width="20" height="20" viewBox="0 0 20 20" fill="none" xmlns="http://www.w3.org/2000/svg">
<g id="eye-slash-svgrepo-com">
<path id="Vector" d="M2.49919 2.5L17.4992 17.5M8.20275 8.26137C7.76722 8.71133 7.49918 9.32433 7.49918 10C7.49918 11.3807 8.6185 12.5 9.99917 12.5C10.6846 12.5 11.3056 12.2242 11.7572 11.7775M5.41585 5.53929C3.8331 6.58362 2.62754 8.15328 2.04753 10C3.1094 13.3809 6.26799 15.8333 9.99933 15.8333C11.6568 15.8333 13.2012 15.3495 14.499 14.5153M9.16583 4.20782C9.44 4.18061 9.71808 4.16667 9.99933 4.16667C13.7308 4.16667 16.8893 6.61909 17.9512 10C17.7173 10.745 17.3814 11.4448 16.9602 12.0833" stroke="#1FDF64" stroke-linecap="round" stroke-linejoin="round"/>
</g>
</svg>
