<svg width="18" height="19" viewBox="0 0 18 19" fill="none" xmlns="http://www.w3.org/2000/svg">
<g id="2021_Facebook_icon 1" clip-path="url(#clip0_46_460)">
<path id="Vector" d="M7.515 18.41C3.24 17.645 0 13.955 0 9.5C0 4.55 4.05 0.5 9 0.5C13.95 0.5 18 4.55 18 9.5C18 13.955 14.76 17.645 10.485 18.41L9.99 18.005H8.01L7.515 18.41Z" fill="url(#paint0_linear_46_460)"/>
<path id="Vector_2" d="M12.5101 12.02L12.9151 9.50001H10.5301V7.74501C10.5301 7.02501 10.8001 6.48501 11.8801 6.48501H13.0501V4.19001C12.4201 4.10001 11.7001 4.01001 11.0701 4.01001C9.00006 4.01001 7.56006 5.27001 7.56006 7.52001V9.50001H5.31006V12.02H7.56006V18.365C8.05506 18.455 8.55006 18.5 9.04506 18.5C9.54006 18.5 10.0351 18.455 10.5301 18.365V12.02H12.5101Z" fill="white"/>
</g>
<defs>
<linearGradient id="paint0_linear_46_460" x1="9.00045" y1="17.874" x2="9.00045" y2="0.496685" gradientUnits="userSpaceOnUse">
<stop stop-color="#0062E0"/>
<stop offset="1" stop-color="#19AFFF"/>
</linearGradient>
<clipPath id="clip0_46_460">
<rect width="18" height="18" fill="white" transform="translate(0 0.5)"/>
</clipPath>
</defs>
</svg>
