<svg width="18" height="18" viewBox="0 0 18 18" fill="none" xmlns="http://www.w3.org/2000/svg">
<g id="Facebook_icon_2013 1" clip-path="url(#clip0_46_571)">
<g id="layer1">
<g id="g4670">
<g id="Clip path group">
<mask id="mask0_46_571" style="mask-type:luminance" maskUnits="userSpaceOnUse" x="-9" y="-8" width="70" height="35">
<g id="clipPath4674">
<path id="path4676" d="M-8.2168 -7.48021H60.3842V26.0161H-8.2168V-7.48021Z" fill="white"/>
</g>
</mask>
<g mask="url(#mask0_46_571)">
<g id="g4672">
<g id="g4678">
<path id="path4680" d="M16.9537 17.9399C17.4987 17.9399 17.9405 17.4981 17.9405 16.9531V1.04681C17.9405 0.501688 17.4987 0.0599384 16.9537 0.0599384H1.04736C0.502232 0.0599384 0.0605469 0.501688 0.0605469 1.04681V16.9531C0.0605469 17.4981 0.502232 17.9399 1.04736 17.9399H16.9537Z" fill="white"/>
</g>
<g id="g4682">
<path id="path4684" d="M12.3969 17.9399V11.0159H14.7211L15.0691 8.31745H12.3969V6.5946C12.3969 5.81334 12.6139 5.28094 13.7343 5.28094L15.1632 5.28028V2.8668C14.916 2.83397 14.0678 2.76048 13.081 2.76048C11.0208 2.76048 9.61036 4.018 9.61036 6.32744V8.31745H7.28027V11.0159H9.61036V17.9399H12.3969Z" fill="#3B5998"/>
</g>
</g>
</g>
</g>
</g>
</g>
</g>
<defs>
<clipPath id="clip0_46_571">
<rect width="18" height="18" fill="white"/>
</clipPath>
</defs>
</svg>
