<svg width="18" height="19" viewBox="0 0 18 19" fill="none" xmlns="http://www.w3.org/2000/svg">
<g id="1534129544 1">
<g id="Clip path group">
<mask id="mask0_46_440" style="mask-type:luminance" maskUnits="userSpaceOnUse" x="0" y="1" width="17" height="17">
<g id="b">
<path id="Vector" d="M16.6875 8H9V11.1875H13.425C13.0125 13.2125 11.2875 14.375 9 14.375C6.3 14.375 4.125 12.2 4.125 9.5C4.125 6.8 6.3 4.625 9 4.625C10.1625 4.625 11.2125 5.0375 12.0375 5.7125L14.4375 3.3125C12.975 2.0375 11.1 1.25 9 1.25C4.425 1.25 0.75 4.925 0.75 9.5C0.75 14.075 4.425 17.75 9 17.75C13.125 17.75 16.875 14.75 16.875 9.5C16.875 9.0125 16.8 8.4875 16.6875 8Z" fill="white"/>
</g>
</mask>
<g mask="url(#mask0_46_440)">
<path id="Vector_2" d="M0 14.375V4.625L6.375 9.5L0 14.375Z" fill="#FBBC05"/>
</g>
</g>
<g id="Clip path group_2">
<mask id="mask1_46_440" style="mask-type:luminance" maskUnits="userSpaceOnUse" x="0" y="1" width="17" height="17">
<g id="b_2">
<path id="Vector_3" d="M16.6875 8H9V11.1875H13.425C13.0125 13.2125 11.2875 14.375 9 14.375C6.3 14.375 4.125 12.2 4.125 9.5C4.125 6.8 6.3 4.625 9 4.625C10.1625 4.625 11.2125 5.0375 12.0375 5.7125L14.4375 3.3125C12.975 2.0375 11.1 1.25 9 1.25C4.425 1.25 0.75 4.925 0.75 9.5C0.75 14.075 4.425 17.75 9 17.75C13.125 17.75 16.875 14.75 16.875 9.5C16.875 9.0125 16.8 8.4875 16.6875 8Z" fill="white"/>
</g>
</mask>
<g mask="url(#mask1_46_440)">
<path id="Vector_4" d="M0 4.625L6.375 9.5L9 7.2125L18 5.75V0.5H0V4.625Z" fill="#EA4335"/>
</g>
</g>
<g id="Clip path group_3">
<mask id="mask2_46_440" style="mask-type:luminance" maskUnits="userSpaceOnUse" x="0" y="1" width="17" height="17">
<g id="b_3">
<path id="Vector_5" d="M16.6875 8H9V11.1875H13.425C13.0125 13.2125 11.2875 14.375 9 14.375C6.3 14.375 4.125 12.2 4.125 9.5C4.125 6.8 6.3 4.625 9 4.625C10.1625 4.625 11.2125 5.0375 12.0375 5.7125L14.4375 3.3125C12.975 2.0375 11.1 1.25 9 1.25C4.425 1.25 0.75 4.925 0.75 9.5C0.75 14.075 4.425 17.75 9 17.75C13.125 17.75 16.875 14.75 16.875 9.5C16.875 9.0125 16.8 8.4875 16.6875 8Z" fill="white"/>
</g>
</mask>
<g mask="url(#mask2_46_440)">
<path id="Vector_6" d="M0 14.375L11.25 5.75L14.2125 6.125L18 0.5V18.5H0V14.375Z" fill="#34A853"/>
</g>
</g>
<g id="Clip path group_4">
<mask id="mask3_46_440" style="mask-type:luminance" maskUnits="userSpaceOnUse" x="0" y="1" width="17" height="17">
<g id="b_4">
<path id="Vector_7" d="M16.6875 8H9V11.1875H13.425C13.0125 13.2125 11.2875 14.375 9 14.375C6.3 14.375 4.125 12.2 4.125 9.5C4.125 6.8 6.3 4.625 9 4.625C10.1625 4.625 11.2125 5.0375 12.0375 5.7125L14.4375 3.3125C12.975 2.0375 11.1 1.25 9 1.25C4.425 1.25 0.75 4.925 0.75 9.5C0.75 14.075 4.425 17.75 9 17.75C13.125 17.75 16.875 14.75 16.875 9.5C16.875 9.0125 16.8 8.4875 16.6875 8Z" fill="white"/>
</g>
</mask>
<g mask="url(#mask3_46_440)">
<path id="Vector_8" d="M18 18.5L6.375 9.5L4.875 8.375L18 4.625V18.5Z" fill="#4285F4"/>
</g>
</g>
</g>
</svg>
