<svg width="12" height="19" viewBox="0 0 12 19" fill="none" xmlns="http://www.w3.org/2000/svg">
<g id="noun-phone-6108940 1" clip-path="url(#clip0_46_471)">
<path id="Vector" fill-rule="evenodd" clip-rule="evenodd" d="M0.236785 1.83929C0.236785 1.09961 0.870339 0.5 1.65188 0.5H10.1424C10.9239 0.5 11.5575 1.09961 11.5575 1.83929V6.31295C11.6932 6.34599 11.7934 6.4625 11.7934 6.60119V7.64285V8.68456C11.7934 8.82322 11.6932 8.93973 11.5575 8.97277V17.0178C11.5575 17.7575 10.9239 18.3571 10.1424 18.3571H1.65188C0.870339 18.3571 0.236785 17.7575 0.236785 17.0178V9.41919C0.101139 9.38617 0.000928483 9.26964 0.000928483 9.13098V7.94045C0.000928483 7.80179 0.101139 7.68528 0.236785 7.65224V7.63349C0.101139 7.60044 0.000928483 7.48391 0.000928483 7.34525V6.15476C0.000928483 6.01608 0.101139 5.89955 0.236785 5.86653V4.95513C0.100687 4.92241 0 4.80566 0 4.66668V4.36904C0 4.23005 0.100687 4.11331 0.236785 4.08059V1.83929ZM0.708476 1.83929C0.708476 1.34617 1.13085 0.946421 1.65186 0.946421H10.1424C10.6635 0.946421 11.0858 1.34617 11.0858 1.83929V17.0178C11.0858 17.511 10.6635 17.9107 10.1424 17.9107H1.65186C1.13083 17.9107 0.708476 17.511 0.708476 17.0178V1.83929ZM4.01035 1.39286C3.74984 1.39286 3.53866 1.59273 3.53866 1.83929C3.53866 2.08584 3.74984 2.28571 4.01035 2.28571H7.78395C8.04442 2.28571 8.25564 2.08584 8.25564 1.83929C8.25564 1.59273 8.04442 1.39286 7.78395 1.39286H4.01035Z" fill="white"/>
</g>
<defs>
<clipPath id="clip0_46_471">
<rect width="12" height="18" fill="white" transform="translate(0 0.5)"/>
</clipPath>
</defs>
</svg>
