<svg width="12" height="18" viewBox="0 0 12 18" fill="none" xmlns="http://www.w3.org/2000/svg">
<g id="noun-phone-6108940 1" clip-path="url(#clip0_46_584)">
<path id="Vector" fill-rule="evenodd" clip-rule="evenodd" d="M0.236785 1.33929C0.236785 0.599614 0.870339 0 1.65188 0H10.1424C10.9239 0 11.5575 0.599614 11.5575 1.33929V5.81295C11.6932 5.84599 11.7934 5.9625 11.7934 6.10119V7.14285V8.18456C11.7934 8.32322 11.6932 8.43973 11.5575 8.47277V16.5178C11.5575 17.2575 10.9239 17.8571 10.1424 17.8571H1.65188C0.870339 17.8571 0.236785 17.2575 0.236785 16.5178V8.91919C0.101139 8.88617 0.000928483 8.76964 0.000928483 8.63098V7.44045C0.000928483 7.30179 0.101139 7.18528 0.236785 7.15224V7.13349C0.101139 7.10044 0.000928483 6.98391 0.000928483 6.84525V5.65476C0.000928483 5.51608 0.101139 5.39955 0.236785 5.36653V4.45513C0.100687 4.42241 0 4.30566 0 4.16668V3.86904C0 3.73005 0.100687 3.61331 0.236785 3.58059V1.33929ZM0.708476 1.33929C0.708476 0.846171 1.13085 0.446421 1.65186 0.446421H10.1424C10.6635 0.446421 11.0858 0.846171 11.0858 1.33929V16.5178C11.0858 17.011 10.6635 17.4107 10.1424 17.4107H1.65186C1.13083 17.4107 0.708476 17.011 0.708476 16.5178V1.33929ZM4.01035 0.892864C3.74984 0.892864 3.53866 1.09273 3.53866 1.33929C3.53866 1.58584 3.74984 1.78571 4.01035 1.78571H7.78395C8.04442 1.78571 8.25564 1.58584 8.25564 1.33929C8.25564 1.09273 8.04442 0.892864 7.78395 0.892864H4.01035Z" fill="black"/>
</g>
<defs>
<clipPath id="clip0_46_584">
<rect width="12" height="18" fill="white"/>
</clipPath>
</defs>
</svg>
