<svg width="40" height="40" viewBox="0 0 40 40" fill="none" xmlns="http://www.w3.org/2000/svg">
<g id="Spotify_icon 1" clip-path="url(#clip0_46_481)">
<path id="Vector" d="M20 0.625C8.95968 0.625 0 9.30469 0 20C0 30.6953 8.95968 39.375 20 39.375C31.0403 39.375 40 30.6953 40 20C40 9.30469 31.0403 0.625 20 0.625Z" fill="#1ED760"/>
<path id="Vector_2" d="M32.7901 18.0547C32.3708 18.0547 32.1127 17.9531 31.7498 17.75C26.0079 14.4297 15.7418 13.6328 9.0966 15.4297C8.80628 15.5078 8.44338 15.6328 8.05628 15.6328C6.99176 15.6328 6.17725 14.8281 6.17725 13.7891C6.17725 12.7266 6.85467 12.125 7.58047 11.9219C10.4192 11.1172 13.5966 10.7344 17.0563 10.7344C22.9434 10.7344 29.1127 11.9219 33.6208 14.4688C34.2498 14.8203 34.6611 15.3047 34.6611 16.2344C34.6611 17.2969 33.774 18.0547 32.7901 18.0547ZM30.2901 24.0078C29.8708 24.0078 29.5885 23.8281 29.2982 23.6797C24.2579 20.7891 16.7418 19.625 10.0563 21.3828C9.66918 21.4844 9.4595 21.5859 9.0966 21.5859C8.2337 21.5859 7.53209 20.9062 7.53209 20.0703C7.53209 19.2344 7.95144 18.6797 8.78208 18.4531C11.024 17.8438 13.3143 17.3906 16.6692 17.3906C21.9031 17.3906 26.9595 18.6484 30.9434 20.9453C31.5966 21.3203 31.8547 21.8047 31.8547 22.4844C31.8466 23.3281 31.1692 24.0078 30.2901 24.0078ZM28.1208 29.1328C27.7821 29.1328 27.5724 29.0312 27.2579 28.8516C22.2256 25.9141 16.3708 25.7891 10.5885 26.9375C10.274 27.0156 9.86273 27.1406 9.62886 27.1406C8.8466 27.1406 8.35467 26.5391 8.35467 25.9063C8.35467 25.1016 8.8466 24.7188 9.45144 24.5938C16.0563 23.1797 22.8063 23.3047 28.5643 26.6406C29.0563 26.9453 29.3466 27.2188 29.3466 27.9297C29.3466 28.6406 28.774 29.1328 28.1208 29.1328Z" fill="black"/>
</g>
<defs>
<clipPath id="clip0_46_481">
<rect width="40" height="40" fill="white"/>
</clipPath>
</defs>
</svg>
